<?xml version="1.0" ?><!DOCTYPE svg  PUBLIC '-//W3C//DTD SVG 1.1//EN'  'http://www.w3.org/Graphics/SVG/1.1/DTD/svg11.dtd'><svg enable-background="new 0 0 512 512" id="Layer_1" version="1.1" viewBox="0 0 512 512" xml:space="preserve" xmlns="http://www.w3.org/2000/svg" xmlns:xlink="http://www.w3.org/1999/xlink"><path d="M410.3,496H102.8c-6.6,0-12-5.4-12-12V29.5  c0-6.6,5.4-12,12-12h307.5c6.6,0,12,5.4,12,12V484C422.3,490.6,416.9,496,410.3,496z" fill="#FFFFFF" stroke="#231F20" stroke-miterlimit="10" stroke-width="5"/><rect fill="#A6A6A6" height="369" stroke="#231F20" stroke-miterlimit="10" stroke-width="5" width="285" x="113.3" y="71.5"/><circle cx="255.8" cy="41.5" fill="#FFFFFF" r="5.3" stroke="#231F20" stroke-miterlimit="10" stroke-width="3"/><ellipse cx="256.5" cy="468.1" fill="#939393" rx="17.3" ry="17.6" stroke="#231F20" stroke-miterlimit="10" stroke-width="3"/><rect fill="#FFFFFF" height="16.9" stroke="#231F20" stroke-miterlimit="10" stroke-width="3" width="18" x="247.5" y="459.6"/><rect fill="#FF6666" height="33.8" stroke="#231F20" stroke-miterlimit="10" stroke-width="3" width="37.5" x="130.9" y="107.1"/><rect fill="#A3FFBA" height="33.8" stroke="#231F20" stroke-miterlimit="10" stroke-width="3" width="37.5" x="201.8" y="107.1"/><rect fill="#5856B2" height="33.8" stroke="#231F20" stroke-miterlimit="10" stroke-width="3" width="37.5" x="273.8" y="107.1"/><rect fill="#7AFF9C" height="33.8" stroke="#231F20" stroke-miterlimit="10" stroke-width="3" width="37.5" x="341.1" y="107.1"/><rect fill="#5856B2" height="33.8" stroke="#231F20" stroke-miterlimit="10" stroke-width="3" width="37.5" x="130.9" y="169.8"/><rect fill="#FF6666" height="33.8" stroke="#231F20" stroke-miterlimit="10" stroke-width="3" width="37.5" x="201.8" y="169.8"/><rect fill="#FFFFFF" height="33.8" stroke="#231F20" stroke-miterlimit="10" stroke-width="3" width="37.5" x="273.8" y="169.8"/><rect fill="#FF6666" height="33.8" stroke="#231F20" stroke-miterlimit="10" stroke-width="3" width="37.5" x="341.1" y="169.8"/><rect fill="#29FF5E" height="33.8" stroke="#231F20" stroke-miterlimit="10" stroke-width="3" width="37.5" x="130.9" y="238.9"/><rect fill="#939393" height="33.8" stroke="#231F20" stroke-miterlimit="10" stroke-width="3" width="37.5" x="273.8" y="239.9"/><rect fill="#9190AB" height="33.8" stroke="#231F20" stroke-miterlimit="10" stroke-width="3" width="37.5" x="201.8" y="239.9"/><rect fill="#FFCCCC" height="33.8" stroke="#231F20" stroke-miterlimit="10" stroke-width="3" width="37.5" x="273.8" y="303.6"/><rect fill="#FF6666" height="33.8" stroke="#231F20" stroke-miterlimit="10" stroke-width="3" width="37.5" x="201.8" y="303.6"/><rect fill="#B22020" height="33.8" stroke="#231F20" stroke-miterlimit="10" stroke-width="3" width="37.5" x="130.9" y="303.6"/><rect fill="#FF6666" height="33.8" stroke="#231F20" stroke-miterlimit="10" stroke-width="3" width="37.5" x="341.1" y="239.9"/><rect fill="#FF6666" height="33.8" stroke="#231F20" stroke-miterlimit="10" stroke-width="3" width="37.5" x="341.1" y="303.6"/></svg>