<?xml version="1.0" encoding="UTF-8" standalone="no"?>
<!-- Created with Inkscape (http://www.inkscape.org/) -->

<svg
   xmlns:dc="http://purl.org/dc/elements/1.1/"
   xmlns:cc="http://creativecommons.org/ns#"
   xmlns:rdf="http://www.w3.org/1999/02/22-rdf-syntax-ns#"
   xmlns:svg="http://www.w3.org/2000/svg"
   xmlns="http://www.w3.org/2000/svg"
   xmlns:xlink="http://www.w3.org/1999/xlink"
   xmlns:sodipodi="http://sodipodi.sourceforge.net/DTD/sodipodi-0.dtd"
   xmlns:inkscape="http://www.inkscape.org/namespaces/inkscape"
   id="svg2"
   version="1.1"
   inkscape:version="0.91 r13725"
   xml:space="preserve"
   width="128"
   height="128"
   viewBox="0 0 128 128"
   sodipodi:docname="gmail2.svg"><metadata
     id="metadata8"><rdf:RDF><cc:Work
         rdf:about=""><dc:format>image/svg+xml</dc:format><dc:type
           rdf:resource="http://purl.org/dc/dcmitype/StillImage" /><dc:title></dc:title></cc:Work></rdf:RDF></metadata><defs
     id="defs6"><linearGradient
       inkscape:collect="always"
       id="linearGradient6973"><stop
         style="stop-color:#f8f5ea;stop-opacity:1"
         offset="0"
         id="stop6975" /><stop
         style="stop-color:#e6e4cc;stop-opacity:1"
         offset="1"
         id="stop6977" /></linearGradient><clipPath
       clipPathUnits="userSpaceOnUse"
       id="clipPath40"><path
         d="m 0,0 0,5225 3077,0 L 3077,0 0,0 Z"
         id="path42"
         inkscape:connector-curvature="0" /></clipPath><clipPath
       clipPathUnits="userSpaceOnUse"
       id="clipPath46"><path
         d="m 2802.22,5225.16 -2527.224,0 C 123.688,5225.16 0,5101.32 0,4950.1 L 0,3368.72 C 0,3217.6 123.688,3093.74 274.996,3093.74 l 2527.224,0 c 151.31,0 275.02,123.86 275.02,274.98 l 0,1581.38 c 0,151.22 -123.71,275.06 -275.02,275.06 z"
         id="path48"
         inkscape:connector-curvature="0" /></clipPath><linearGradient
       x1="0"
       y1="0"
       x2="1"
       y2="0"
       gradientUnits="userSpaceOnUse"
       gradientTransform="matrix(2330.29,0,0,-2330.29,0,4159.45)"
       spreadMethod="pad"
       id="linearGradient50"><stop
         style="stop-opacity:1;stop-color:#f8f5ea"
         offset="0"
         id="stop52" /><stop
         style="stop-opacity:1;stop-color:#e6e4cc"
         offset="1"
         id="stop54" /></linearGradient><linearGradient
       inkscape:collect="always"
       xlink:href="#linearGradient6973"
       id="linearGradient6979"
       x1="0"
       y1="63.674805"
       x2="128"
       y2="63.674805"
       gradientUnits="userSpaceOnUse" /></defs><sodipodi:namedview
     pagecolor="#ffffff"
     bordercolor="#666666"
     borderopacity="1"
     objecttolerance="10"
     gridtolerance="10"
     guidetolerance="10"
     inkscape:pageopacity="0"
     inkscape:pageshadow="2"
     inkscape:window-width="1280"
     inkscape:window-height="974"
     id="namedview4"
     showgrid="false"
     fit-margin-top="0"
     fit-margin-left="0"
     fit-margin-right="0"
     fit-margin-bottom="0"
     inkscape:zoom="4.0879355"
     inkscape:cx="58.500321"
     inkscape:cy="54.206692"
     inkscape:window-x="0"
     inkscape:window-y="0"
     inkscape:window-maximized="1"
     inkscape:current-layer="layer6"
     inkscape:snap-intersection-paths="true"
     inkscape:object-nodes="true"
     inkscape:snap-smooth-nodes="true"
     inkscape:snap-bbox="true"
     inkscape:bbox-paths="true"
     inkscape:bbox-nodes="true" /><g
     inkscape:groupmode="layer"
     id="layer6"
     inkscape:label="gmail"
     style="display:inline"><g
       id="g7003"><path
         inkscape:connector-curvature="0"
         id="path6933"
         d="m 11.5,19.349609 a 11.5,11.5 0 0 0 -11.5,11.5 L 0,96.5 A 11.5,11.5 0 0 0 11.5,108 l 105,0 A 11.5,11.5 0 0 0 128,96.5 l 0,-65.650391 a 11.5,11.5 0 0 0 -11.5,-11.5 l -105,0 z"
         style="display:inline;fill:url(#linearGradient6979);fill-opacity:1;stroke:none" /><path
         d="m 50.81965,488.82706 -38.122042,-20.64378 0.06239,-0.96037 38.50389,20.7546 -0.444242,0.84955"
         style="display:inline;fill:#b6b4ad;fill-opacity:1;fill-rule:nonzero;stroke:none"
         id="path58"
         inkscape:connector-curvature="0"
         transform="matrix(1.25,0,0,-1.25,0,692.02865)" /><path
         inkscape:connector-curvature="0"
         d="m 102.4,476.37331 0,51.19567 -13.858027,-10.72936 0,-49.61671 4.706305,0 c 5.035079,0 9.151722,4.12164 9.151722,9.1504 m -51.136108,11.6042 51.136108,39.59147 0,1.42723 c 0,5.03209 -4.116643,9.15306 -9.151722,9.15306 l -2.036193,0 -38.727941,-33.05928 -40.291907,33.05928 -3.0413125,0 C 4.1159128,538.14927 0,534.0283 0,528.99621 l 0,-52.6229 c 0,-5.02876 4.1159128,-9.1504 9.1509245,-9.1504 l 3.6090775,0 0,51.31348 38.50389,-30.55888"
         style="display:inline;fill:#ef363c;fill-opacity:1;fill-rule:nonzero;stroke:none"
         id="path64"
         transform="matrix(1.25,0,0,-1.25,0,692.02865)" /><path
         inkscape:connector-curvature="0"
         id="path6827"
         d="m 102.4,527.5698 -51.135938,-39.59219 37.278122,-20.75469 4.657816,0 a 9.2,9.2 0 0 1 9.2,9.2 l 0,51.14688 z"
         style="display:inline;fill:#000000;fill-opacity:0.25098039;fill-rule:evenodd;stroke:none;stroke-width:0.80000001px;stroke-linecap:butt;stroke-linejoin:miter;stroke-opacity:1"
         transform="matrix(1.25,0,0,-1.25,0,692.02865)" /></g></g></svg>