<?xml version="1.0" encoding="utf-8"?>
<!-- Generator: Adobe Illustrator 15.0.2, SVG Export Plug-In . SVG Version: 6.00 Build 0)  -->
<!DOCTYPE svg PUBLIC "-//W3C//DTD SVG 1.1//EN" "http://www.w3.org/Graphics/SVG/1.1/DTD/svg11.dtd" [
	<!ENTITY ns_flows "http://ns.adobe.com/Flows/1.0/">
	<!ENTITY ns_extend "http://ns.adobe.com/Extensibility/1.0/">
	<!ENTITY ns_ai "http://ns.adobe.com/AdobeIllustrator/10.0/">
	<!ENTITY ns_graphs "http://ns.adobe.com/Graphs/1.0/">
]>
<svg version="1.1" xmlns:x="&ns_extend;" xmlns:i="&ns_ai;" xmlns:graph="&ns_graphs;"
	 xmlns="http://www.w3.org/2000/svg" xmlns:xlink="http://www.w3.org/1999/xlink" xmlns:a="http://ns.adobe.com/AdobeSVGViewerExtensions/3.0/"
	 x="0px" y="0px" width="128px" height="128px" viewBox="0 0 128 128" enable-background="new 0 0 128 128" xml:space="preserve">
<g id="web">
	<g>
		<path opacity="0.5" fill="#DCA31E" d="M64,128c35.346,0,64-28.654,64-64c0-35.346-28.654-64-64-64C28.654,0,0,28.654,0,64
			C0,99.346,28.654,128,64,128"/>
		<path fill="#EBEBEB" d="M25.984,25.023c0,0-5.669,0-5.669,5.669v54.143c0,0,0,5.669,5.669,5.669h74.551c0,0,5.669,0,5.669-5.669
			V30.692c0,0,0-5.669-5.669-5.669H25.984z"/>
	</g>
	<g>
		<defs>
			<path id="SVGID_1_" d="M25.984,25.024c0,0-5.669,0-5.669,5.669v54.142c0,0,0,5.669,5.669,5.669h74.551c0,0,5.669,0,5.669-5.669
				V30.693c0,0,0-5.669-5.669-5.669H25.984z"/>
		</defs>
		<clipPath id="SVGID_2_">
			<use xlink:href="#SVGID_1_"  overflow="visible"/>
		</clipPath>
		<rect x="15.496" y="22.189" clip-path="url(#SVGID_2_)" fill="#585857" width="93.543" height="58.677"/>
	</g>
	<rect x="27.685" y="31.827" fill="#FFFFFF" width="72.567" height="43.937"/>
	<rect x="30.803" y="35.512" fill="#C89223" width="65.764" height="5.386"/>
	<rect x="30.803" y="42.882" opacity="0.75" fill="#DCA31E" width="20.331" height="28.346"/>
	<rect x="53.118" y="55.888" fill="#D8D8D8" width="20.692" height="15.339"/>
	<rect x="75.795" y="55.888" fill="#D8D8D8" width="20.693" height="15.339"/>
	<rect x="53.118" y="42.882" fill="#D8D8D8" width="43.37" height="10.672"/>
	<rect x="45.543" y="97.59" fill="#EBEBEB" width="35.433" height="5.386"/>
	<polygon fill="#EBEBEB" points="53.338,89.795 50.503,99.074 76.016,99.074 73.182,89.795 	"/>
	<g>
		<path fill="#585857" d="M89.118,66.977c0,0-2.835,0-2.835,2.835v30.33c0,0,0,2.835,2.835,2.835h15.731c0,0,2.836,0,2.836-2.835
			v-30.33c0,0,0-2.835-2.836-2.835H89.118z"/>
	</g>
	<rect x="88.693" y="70.661" fill="#FFFFFF" width="16.583" height="27.638"/>
	<g>
		<path fill="#FFFFFF" d="M96.843,101.984c0.744,0,1.346-0.604,1.346-1.346c0-0.744-0.602-1.348-1.346-1.348
			s-1.347,0.604-1.347,1.348C95.496,101.381,96.099,101.984,96.843,101.984"/>
	</g>
	<line fill="none" stroke="#FFFFFF" x1="94.504" y1="68.961" x2="99.323" y2="68.961"/>
	<rect x="89.469" y="71.579" fill="#C89223" width="15.024" height="3.118"/>
	<rect x="89.468" y="75.831" opacity="0.75" fill="#DCA31E" width="14.811" height="9.871"/>
	<rect x="89.468" y="86.936" fill="#D8D8D8" width="14.811" height="9.871"/>
</g>
<g id="ecommerce" display="none">
	<g display="inline">
		<path opacity="0.5" fill="#DCA31E" d="M64,128c35.346,0,64-28.654,64-64c0-35.346-28.654-64-64-64C28.654,0,0,28.654,0,64
			C0,99.346,28.654,128,64,128"/>
		<path fill="#585857" d="M47.945,25.148c0,0-5.63,0-5.63,5.63v66.443c0,0,0,5.63,5.63,5.63h32.11c0,0,5.63,0,5.63-5.63V30.779
			c0,0,0-5.63-5.63-5.63H47.945z"/>
	</g>
	<rect x="47.198" y="33.102" display="inline" fill="#FFFFFF" width="33.604" height="59.654"/>
	<g display="inline">
		<path fill="#FFFFFF" d="M63.713,100.71c1.507,0,2.729-1.301,2.729-2.906c0-1.604-1.222-2.905-2.729-2.905
			c-1.507,0-2.729,1.301-2.729,2.905C60.984,99.409,62.206,100.71,63.713,100.71"/>
	</g>
	<line display="inline" fill="none" stroke="#FFFFFF" stroke-width="1.986" x1="58.974" y1="29.345" x2="68.738" y2="29.345"/>
	<polygon display="inline" fill="#C89223" points="47.198,33.173 39.403,51.259 46.329,51.259 51.999,33.173 	"/>
	<polygon display="inline" fill="#DCA31E" points="51.999,33.173 46.33,51.259 53.255,51.259 56.799,33.173 	"/>
	<polygon display="inline" fill="#C89223" points="56.799,33.173 53.256,51.259 60.182,51.259 61.6,33.173 	"/>
	<polygon display="inline" fill="#DCA31E" points="61.6,33.173 60.183,51.259 67.817,51.259 66.4,33.173 	"/>
	<polygon display="inline" fill="#C89223" points="66.4,33.173 67.817,51.259 74.744,51.259 71.201,33.173 	"/>
	<polygon display="inline" fill="#DCA31E" points="71.201,33.173 74.744,51.259 81.671,51.259 76.002,33.173 	"/>
	<polygon display="inline" fill="#C89223" points="76.002,33.173 81.671,51.259 88.598,51.259 80.803,33.173 	"/>
	<g display="inline">
		<path fill="#C89223" d="M39.416,51.26c0.077,1.851,1.605,3.331,3.494,3.331c1.888,0,3.416-1.48,3.493-3.331H39.416z"/>
		<path fill="#C89223" d="M67.876,51.26c0.076,1.851,1.589,3.331,3.458,3.331c1.87,0,3.382-1.48,3.458-3.331H67.876z"/>
		<path fill="#DCA31E" d="M46.361,51.26c0.076,1.851,1.589,3.331,3.458,3.331s3.382-1.48,3.458-3.331H46.361z"/>
		<path fill="#DCA31E" d="M74.75,51.26c0.076,1.851,1.589,3.331,3.458,3.331s3.382-1.48,3.458-3.331H74.75z"/>
		<path fill="#C89223" d="M53.249,51.26c0.076,1.851,1.589,3.331,3.458,3.331s3.382-1.48,3.458-3.331H53.249z"/>
		<path fill="#C89223" d="M81.638,51.26c0.076,1.851,1.589,3.331,3.458,3.331c1.87,0,3.382-1.48,3.458-3.331H81.638z"/>
		<path fill="#DCA31E" d="M60.167,51.26c0.084,1.851,1.764,3.331,3.839,3.331c2.075,0,3.755-1.48,3.839-3.331H60.167z"/>
		<path fill="none" stroke="#DCA31E" stroke-width="1.5" d="M52.58,64.323h2.834c0,0,1.308,0.327,1.962,2.29
			c0.655,1.961,2.617,9.157,2.617,9.157h9.812l2.615-8.885H60.647"/>
		<path fill="#DCA31E" d="M61.792,80.022c0.632,0,1.145-0.514,1.145-1.146s-0.513-1.145-1.145-1.145
			c-0.632,0-1.145,0.513-1.145,1.145S61.16,80.022,61.792,80.022"/>
		<path fill="#DCA31E" d="M67.515,80.022c0.633,0,1.146-0.514,1.146-1.146s-0.513-1.145-1.146-1.145
			c-0.632,0-1.145,0.513-1.145,1.145S66.883,80.022,67.515,80.022"/>
	</g>
	<rect x="57.26" y="84.355" display="inline" fill="#C89223" width="15.024" height="3.117"/>
</g>
<g id="comunicacion" display="none">
	<g display="inline">
		<path opacity="0.5" fill="#DCA31E" d="M64,128c35.346,0,64-28.654,64-64c0-35.346-28.654-64-64-64C28.654,0,0,28.654,0,64
			C0,99.346,28.654,128,64,128"/>
		<path fill="#FFFFFF" d="M74.832,22.078c0,0-1.843,6.378-11.765,14.882c-9.921,8.504-30.33,19.276-30.33,19.276
			s-0.851,8.362,1.7,14.881c2.552,6.52,8.221,12.756,8.221,12.756s16.724-7.088,30.756-5.103c14.03,1.984,23.669,4.252,23.669,4.252
			"/>
		<path fill="#C89223" d="M35.01,71.609c-2.551-7.087-2.211-15.023-2.211-15.023s-7.257,2.777-7.285,10.573
			c-0.024,6.661,3.885,16.678,10.12,17.263c4.535,0.425,6.888-0.549,6.888-0.549S37.789,78.639,35.01,71.609"/>
		<path fill="#C89223" d="M50.034,81.747c0,0,0.567,6.094,2.126,12.047s4.819,13.182,7.087,13.465
			c2.267,0.283,9.212-5.244,9.212-7.654c0-2.409-4.819-3.827-4.819-3.827s0.426-4.535-0.141-5.811
			c-0.567-1.275-2.693-2.977-2.693-2.977l2.551-8.077c0,0-1.417-0.852-7.228,0.707C50.318,81.18,50.034,81.747,50.034,81.747"/>
		<path fill="#585857" d="M98.824,83.124c5.329-1.887,4.776-17.177-1.234-34.149C91.578,32,82.387,19.77,77.058,21.657
			c-5.329,1.887-4.776,17.176,1.235,34.151C84.304,72.78,93.495,85.012,98.824,83.124"/>
		<path fill="#C89223" d="M76.396,49.432c0,0,8.267-4.042,11.339,4.11c3.685,9.78-5.386,11.764-5.386,11.764
			C78.026,56.164,76.396,49.432,76.396,49.432"/>
	</g>
</g>
<g id="editorial" display="none">
	<g display="inline">
		<path opacity="0.5" fill="#DCA31E" d="M64,128c35.346,0,64-28.654,64-64c0-35.346-28.654-64-64-64C28.654,0,0,28.654,0,64
			C0,99.346,28.654,128,64,128"/>
		<path fill="#C4C4C4" d="M91.942,98.573c0.7,0,0,8.694,0,8.694H34.079c0,0-4.603,0.256-4.603-5.933
			c0-9.839,0.895-10.946,0.895-10.946L91.942,98.573z"/>
	</g>
	<rect x="40.344" y="24.537" display="inline" fill="#FFFFFF" width="58.18" height="78"/>
	<rect x="47.058" y="30.611" display="inline" fill="#C89223" width="44.114" height="7.221"/>
	<rect x="71.672" y="72.488" display="inline" fill="#C89223" width="19.82" height="22.376"/>
	<line display="inline" fill="none" stroke="#D8D8D8" stroke-width="1.353" x1="71.871" y1="66.733" x2="91.943" y2="66.733"/>
	<line display="inline" fill="none" stroke="#D8D8D8" stroke-width="1.353" x1="71.871" y1="59.701" x2="91.943" y2="59.701"/>
	<line display="inline" fill="none" stroke="#D8D8D8" stroke-width="1.353" x1="71.871" y1="52.668" x2="91.943" y2="52.668"/>
	<line display="inline" fill="none" stroke="#D8D8D8" stroke-width="1.353" x1="71.871" y1="45.635" x2="91.943" y2="45.635"/>
	<line display="inline" fill="none" stroke="#D8D8D8" stroke-width="1.353" x1="46.937" y1="45.635" x2="67.009" y2="45.635"/>
	<line display="inline" fill="none" stroke="#D8D8D8" stroke-width="1.353" x1="46.937" y1="52.668" x2="67.009" y2="52.668"/>
	<line display="inline" fill="none" stroke="#D8D8D8" stroke-width="1.353" x1="46.937" y1="59.701" x2="67.009" y2="59.701"/>
	<line display="inline" fill="none" stroke="#D8D8D8" stroke-width="1.353" x1="46.937" y1="66.733" x2="67.009" y2="66.733"/>
	<line display="inline" fill="none" stroke="#D8D8D8" stroke-width="1.353" x1="46.937" y1="73.766" x2="67.009" y2="73.766"/>
	<line display="inline" fill="none" stroke="#D8D8D8" stroke-width="1.353" x1="46.937" y1="80.799" x2="67.009" y2="80.799"/>
	<line display="inline" fill="none" stroke="#D8D8D8" stroke-width="1.353" x1="46.937" y1="87.831" x2="67.009" y2="87.831"/>
	<line display="inline" fill="none" stroke="#D8D8D8" stroke-width="1.353" x1="46.937" y1="94.864" x2="67.009" y2="94.864"/>
	<g display="inline">
		<path fill="#EBEBEB" d="M40.472,24.086v78.902c0,0-0.511-6.461-5.37-6.461c-4.859,0-5.627,4.791-5.627,5.626V22.363
			c0,0,0.579-4.347,5.499-4.347C39.894,18.016,40.472,24.086,40.472,24.086"/>
	</g>
</g>
<g id="publicidad" display="none">
	<g display="inline">
		<path opacity="0.75" fill="#DCA31E" d="M64,128c35.346,0,64-28.654,64-64c0-35.346-28.654-64-64-64C28.654,0,0,28.654,0,64
			C0,99.346,28.654,128,64,128"/>
	</g>
	<rect x="34.91" y="24.537" display="inline" fill="#FFFFFF" width="58.18" height="78"/>
	<rect x="41.623" y="30.611" display="inline" fill="#C89223" width="44.114" height="65.887"/>
	<g display="inline">
		<path fill="#FFFFFF" d="M66.568,58.935h2.532c0.947,0,1.635,0.082,2.062,0.246c0.593,0.231,1.096,0.684,1.509,1.361
			c0.414,0.676,0.62,1.645,0.62,2.905c0,0.909-0.105,1.683-0.315,2.321c-0.211,0.639-0.506,1.147-0.884,1.525
			c-0.269,0.268-0.629,0.476-1.081,0.624c-0.452,0.147-1.075,0.222-1.869,0.222h-2.573V58.935z M69.322,69.561
			c0.729,0,1.373-0.068,1.936-0.205c0.561-0.137,1.041-0.339,1.438-0.604c0.397-0.267,0.764-0.63,1.098-1.094
			c0.334-0.463,0.607-1.048,0.821-1.755s0.321-1.518,0.321-2.433c0-1.073-0.158-2.028-0.473-2.864
			c-0.315-0.835-0.79-1.521-1.427-2.058c-0.487-0.417-1.075-0.704-1.767-0.863c-0.493-0.115-1.208-0.173-2.146-0.173h-4.149v12.048
			H69.322z M57.225,61.08c0.28-0.762,0.496-1.529,0.65-2.301c0.186,0.652,0.471,1.485,0.854,2.498l1.258,3.337h-4.085L57.225,61.08z
			 M54.119,69.561l1.323-3.649h5.038l1.405,3.649h1.816L58.77,57.513h-1.717l-4.627,12.048H54.119z"/>
	</g>
</g>
<g id="identidad_corporativa" display="none">
	<g display="inline">
		<path opacity="0.75" fill="#DCA31E" d="M64,128c35.346,0,64-28.654,64-64c0-35.346-28.654-64-64-64C28.654,0,0,28.654,0,64
			C0,99.346,28.654,128,64,128"/>
		<path fill="#C89223" d="M50.554,97.49v-1.731c-2.106-0.181-3.538-0.453-4.299-0.815c-1.23-0.604-1.844-1.692-1.844-3.265
			c0-0.785,0.226-1.85,0.681-3.195c0.454-1.345,1.85-5.069,4.188-11.173h23.722l3.604,8.974c0.527,1.27,0.938,2.478,1.23,3.627
			s0.44,1.95,0.44,2.402c0,1.36-0.383,2.215-1.143,2.562c-0.762,0.347-2.458,0.643-5.088,0.884v1.731h22.89v-1.731
			c-2.109-0.302-3.61-0.868-4.505-1.697c-0.894-0.83-2.088-2.997-3.582-6.5l-22.427-52.89h-1.793L43.877,80.455
			c-2.81,6.863-4.794,11.062-5.951,12.597c-1.158,1.534-2.894,2.438-5.209,2.707v1.731H50.554z M50.805,73.529l10.363-25.692
			l10.316,25.692H50.805z"/>
		<ellipse fill="none" stroke="#FFFFFF" stroke-width="0.5" cx="32.65" cy="88.369" rx="6.636" ry="6.896"/>
		<ellipse fill="none" stroke="#FFFFFF" stroke-width="0.5" cx="48.161" cy="91.766" rx="3.546" ry="3.693"/>
		<ellipse fill="none" stroke="#FFFFFF" stroke-width="0.5" cx="75.718" cy="92.615" rx="2.438" ry="2.546"/>
		<ellipse fill="none" stroke="#FFFFFF" stroke-width="0.5" cx="94.909" cy="87.827" rx="7.052" ry="7.327"/>
	</g>
	<line display="inline" fill="none" stroke="#FFFFFF" stroke-width="0.5" x1="66.137" y1="25.339" x2="34.705" y2="102.826"/>
	<line display="inline" fill="none" stroke="#FFFFFF" stroke-width="0.5" x1="70.196" y1="25.339" x2="38.764" y2="102.826"/>
	<line display="inline" fill="none" stroke="#FFFFFF" stroke-width="0.5" x1="51.522" y1="25.339" x2="83.534" y2="102.826"/>
	<line display="inline" fill="none" stroke="#FFFFFF" stroke-width="0.5" x1="60.801" y1="25.339" x2="92.812" y2="102.826"/>
	<line display="inline" fill="none" stroke="#FFFFFF" stroke-width="0.5" x1="25.514" y1="97.816" x2="102.485" y2="97.816"/>
	<line display="inline" fill="none" stroke="#FFFFFF" stroke-width="0.5" x1="25.514" y1="77.982" x2="102.485" y2="77.982"/>
	<line display="inline" fill="none" stroke="#FFFFFF" stroke-width="0.5" x1="25.514" y1="73.174" x2="102.485" y2="73.174"/>
	<g id="_x30_8ow7p_1_" display="inline">
		
			<image overflow="visible" width="338" height="548" id="_x30_8ow7p_3_" xlink:href="E2EB420.jpg"  transform="matrix(1 0 0 1 -456 -196.0176)">
		</image>
	</g>
</g>
</svg>
