<?xml version="1.0" encoding="utf-8"?>
<!-- Generator: Adobe Illustrator 19.0.0, SVG Export Plug-In . SVG Version: 6.00 Build 0)  -->
<svg version="1.1" id="Capa_1" xmlns="http://www.w3.org/2000/svg" xmlns:xlink="http://www.w3.org/1999/xlink" x="0px" y="0px"
	 viewBox="-41 164.9 128 128" style="enable-background:new -41 164.9 128 128;" xml:space="preserve">
<style type="text/css">
	.st0{fill:#35CCFF;}
	.st1{fill:#00BAFF;}
	.st2{fill:#333333;}
	.st3{fill:#FFFFFF;}
	.st4{fill:#C0C2C1;}
	.st5{fill:#E6E6E6;}
	.st6{fill:#000100;}
	.st7{fill:#FE9A0F;}
	.st8{fill:#E2810C;}
	.st9{fill:#DD7F10;}
	.st10{fill:#AE4E32;}
	.st11{fill:#9E402B;}
	.st12{fill:#FE9B0E;}
</style>
<circle class="st0" cx="23" cy="228.9" r="64"/>
<path class="st1" d="M34.5,184.5L-15,262.3l29.9,30.1c2.7,0.3,5.4,0.5,8.2,0.5c32.8,0,59.8-24.6,63.5-56.4L34.5,184.5z"/>
<path class="st2" d="M44.9,215.8c-5.2-4.7-7.4-11.8-6.3-18.7c0.2-1,0.2-2,0.2-3c-0.4-7.7-6.7-14-14.5-14.2
	c-8.4-0.2-15.4,6.5-15.4,14.9c0,1.3,0.2,2.5,0.4,3.6c1.7,6.8,0,13.9-4.8,19c-4.8,5.1-7.8,12-7.8,19.5c0,17.4,6.8,25.8,16.4,28.4
	c2.2-1,5.5-1.6,9.1-1.6c3.4,0,6.5,0.6,8.7,1.5c11.9-2.4,17.6-8.2,21.6-21.6C55.7,232.9,50.8,221.1,44.9,215.8z"/>
<path d="M44.9,215.8c-5.2-4.7-7.4-11.8-6.3-18.7c0.2-1,0.2-2,0.2-3c-0.4-7.7-6.7-14-14.5-14.2c-0.7,0-1.4,0-2,0.1v83.8
	c4,0,7.5,0.8,9.7,2c11.3-1.8,16.7-9.1,20.5-22.1C55.7,232.9,50.8,221.1,44.9,215.8z"/>
<path class="st3" d="M3.1,240.6c0-11.3,9.1-37.6,20.3-37.6s20.3,26.4,20.3,37.6s-9.1,20.3-20.3,20.3S3.1,251.8,3.1,240.6z"/>
<path class="st4" d="M23.4,203c-0.4,0-0.7,0-1.1,0.1v57.8c0.4,0,0.7,0,1.1,0c11.2,0,20.3-9.1,20.3-20.3S34.6,203,23.4,203z"/>
<ellipse class="st5" cx="15.9" cy="197.3" rx="3.3" ry="4.5"/>
<ellipse class="st6" cx="15.9" cy="198.3" rx="1.7" ry="2.9"/>
<ellipse class="st5" cx="27.8" cy="197.3" rx="3.3" ry="4.5"/>
<ellipse class="st6" cx="27.8" cy="198.3" rx="1.7" ry="2.9"/>
<path class="st7" d="M32.2,205c1.1,2.3-7.2,6.7-10.1,6.7c-3.6,0-11.1-5.3-10.1-6.7c1.9-2.6,6.1-6.9,9.6-6.9
	C24.1,198.2,31.5,203.4,32.2,205z"/>
<path class="st8" d="M32.2,205c-0.7-1.5-7.1-6.1-10-6.8v13.5C25.2,211.6,33.3,207.3,32.2,205z"/>
<path class="st9" d="M44.9,241.3c1.5,2.8,3.7,5.5,6.5,6.2c2.1,0.5,3.7,2.2,3.9,4.4c0,0.3,0.1,0.6,0.1,0.9c0.4,1.9,1.2,3.6,2.3,5.1
	c1.7,2.1,0.5,5.3-2.2,5.9l-21.3,4c-4.6,0.9-8.1-4.1-5.7-8.2l11.7-18.4C41.4,239.4,44,239.5,44.9,241.3z"/>
<path class="st10" d="M22.1,210.4c-3,0-6.1-1.5-9.2-4.4l1-1.1c3.1,2.9,6.1,4.2,8.9,3.9c4-0.4,6.3-3.8,6.4-3.8l1.2,0.9
	c-0.1,0.2-2.8,4-7.4,4.5C22.7,210.4,22.4,210.4,22.1,210.4z"/>
<path class="st11" d="M22.9,208.9c-0.2,0-0.4,0-0.6,0v1.5c0.3,0,0.5,0,0.8,0c4.6-0.5,7.3-4.3,7.4-4.5l-1.2-0.9
	C29.2,205.1,26.9,208.5,22.9,208.9z"/>
<circle cx="47.8" cy="244.6" r="6.8"/>
<path class="st2" d="M1.8,237.1c0,0,7.3,8.9,12.5,10.9c5.2,2-2.5,7.8-9.5,3.4C-2.2,247,1.8,237.1,1.8,237.1z"/>
<path class="st12" d="M-2.2,241.3c-1.5,2.8-3.7,5.5-6.5,6.2c-2.1,0.5-3.7,2.2-3.9,4.4c0,0.3-0.1,0.6-0.1,0.9
	c-0.4,1.9-1.2,3.6-2.3,5.1c-1.7,2.1-0.5,5.3,2.2,5.9l21.3,4c4.6,0.9,8.1-4.1,5.7-8.2L2.4,241.1C1.3,239.4-1.2,239.5-2.2,241.3z"/>
</svg>
